<svg id="Layer_1" data-name="Layer 1" xmlns="http://www.w3.org/2000/svg" viewBox="0 0 248.12 189"><defs><style>.cls-1,.cls-2,.cls-5{fill:none;}.cls-1,.cls-3{stroke:#050505;}.cls-1,.cls-2,.cls-3,.cls-5{stroke-miterlimit:10;}.cls-2{stroke:#fff;}.cls-3,.cls-4{fill:#060504;}.cls-5{stroke:#020202;}.cls-6{fill:#050505;}.cls-7{fill:#020202;}</style></defs><title>capstoneCert</title><rect class="cls-1" x="0.5" y="0.5" width="247.12" height="188"/><polygon class="cls-1" points="231.95 185.84 231.95 179.34 241.41 179.34 241.41 182.29 238.46 182.29 238.46 173.43 244.37 173.43 244.37 15.57 238.46 15.57 238.46 6.12 241.41 6.12 241.41 9.66 231.95 9.66 231.95 3.16 15.57 3.16 15.57 9.66 6.12 9.66 6.12 6.12 9.07 6.12 9.07 15.57 3.16 15.57 3.16 173.43 9.07 173.43 9.07 182.29 6.12 182.29 6.12 179.34 15.57 179.34 15.57 185.84 231.95 185.84"/><path class="cls-1" d="M692,456.42c4.73,1.18,5.32-3.55,5.32-3.55-1.18-1.77,1.78-3.54,1.78-3.54,3.54-3.55,1.18-4.73,1.18-4.73a3.35,3.35,0,0,1,0-3.55,3.47,3.47,0,0,0-.59-4.73c-1.78-.59-2.37-3-2.37-3,0-5.32-3.54-4.72-3.54-4.72-3,0-3-1.78-3-1.78-1.18-2.95-5.32-1.77-5.32-1.77-1.77,1.77-4.14,0-4.14,0-5.32-1.18-5.32,1.77-5.32,1.77s0,1.78-4.73,1.78c0,0-3,1.18-2.36,4.13a6.46,6.46,0,0,1-3,4.14s-2.36,2.37.59,4.73a9.19,9.19,0,0,1-1.18,3.55s-1.77,2.36,2.36,4.73a3.72,3.72,0,0,1,1.78,4.14s0,2.95,4.14,2.36c0,0,2.95.59,2.95,1.77a2.43,2.43,0,0,0,3.55,1.78s1.77-1.78,5.32,0a3.38,3.38,0,0,0,4.73-1.18s0-1.19,1.77-2.37" transform="translate(-559.38 -289.5)"/><line class="cls-1" x1="19.12" y1="156.87" x2="88.88" y2="156.87"/><line class="cls-1" x1="227.81" y1="156.87" x2="158.64" y2="156.87"/><path class="cls-2" d="M700.32,341.35l.14,7.59Z" transform="translate(-559.38 -289.5)"/><path class="cls-1" d="M700.2,341.22H664.59s-7.65,3.55,0,7.71h40.68s1.45.16,1.2,1.25v44.2a1.27,1.27,0,0,1-1,1.15H666s-6.27-.22-7.42-6.22V344.58a6.27,6.27,0,0,1,5.16-5.93h38.4s1.65-.22,1.43,1.07l.08,8.73" transform="translate(-559.38 -289.5)"/><rect class="cls-1" x="106.75" y="59.59" width="4.5" height="46.28"/><path class="cls-3" d="M676.09,384.16h22.58s1.38.41,0,.82H676.09S674.88,384.51,676.09,384.16Z" transform="translate(-559.38 -289.5)"/><path class="cls-4" d="M679.43,386.69h15.92s1,.57,0,1H679.43C679.43,387.8,678.59,387.18,679.43,386.69Z" transform="translate(-559.38 -289.5)"/><path class="cls-5" d="M700.2,341.26l3.48,7.83H664.39s-7.91-3.81,0-8H700.2Z" transform="translate(-559.38 -289.5)"/><path class="cls-6" d="M671.29,346.52h-3.55V336.41a17.66,17.66,0,0,1,2.6-7.38s2.79-4,6.66-5.28a15.32,15.32,0,0,1,5.84-1.14s5.34-.1,8.25,2.8c0,0,5.43,3.44,5.58,7.75,0,0,.78.8.64,3.5l.34,9.86h-4l-.19-10.37s-.89-6-4.76-7.88c0,0-3.63-2.42-6.19-1.91a9.84,9.84,0,0,0-7.45,2.86,10.56,10.56,0,0,0-3.56,6.74Z" transform="translate(-559.38 -289.5)"/><path class="cls-7" d="M697.48,346.52h3.36V335.65a23.13,23.13,0,0,0-2.5-7.5,22.13,22.13,0,0,0-7.71-7.3c-3.3-1.78-8.22-1.88-8.22-1.88a19.4,19.4,0,0,0-7.07,1.42A15.91,15.91,0,0,0,667.9,326a21.79,21.79,0,0,0-4,9.59v10.89h3.86V336.41s1.42-7.07,4.86-9.87a14.55,14.55,0,0,1,6.29-3.4,16,16,0,0,1,4-.53,17,17,0,0,1,5.87,1.27,22.74,22.74,0,0,1,5.27,4.25s2.06,2,3.24,7.47Z" transform="translate(-559.38 -289.5)"/></svg>