<svg id="Layer_1" data-name="Layer 1" xmlns="http://www.w3.org/2000/svg" viewBox="0 0 262.1 157.01"><defs><style>.cls-1{fill:none;stroke:#050505;stroke-miterlimit:10;}</style></defs><title>capstoneBook</title><path class="cls-1" d="M429,172.5v134s-41-22-124-15L317.5,153S410.5,156,429,172.5Z" transform="translate(-297.95 -152.49)"/><path class="cls-1" d="M429.5,172.5v134s41-22,124-15L541,153S448,156,429.5,172.5Z" transform="translate(-297.95 -152.49)"/><polyline class="cls-1" points="19.28 3.52 14.55 3.52 0.55 156.51 261.55 156.51 247.55 3.52 243.32 3.52"/><path class="cls-1" d="M305.5,293s71-6,123,14" transform="translate(-297.95 -152.49)"/><path class="cls-1" d="M305.5,295s73-5,123,12" transform="translate(-297.95 -152.49)"/><path class="cls-1" d="M428.5,307c-63-15-123-10-123-10v-6" transform="translate(-297.95 -152.49)"/><path class="cls-1" d="M552.5,293s-71-6-123,14" transform="translate(-297.95 -152.49)"/><path class="cls-1" d="M552.5,295s-73-5-123,12" transform="translate(-297.95 -152.49)"/><path class="cls-1" d="M429.5,307c63-15,123-10,123-10v-6" transform="translate(-297.95 -152.49)"/></svg>