<svg id="Layer_1" data-name="Layer 1" xmlns="http://www.w3.org/2000/svg" viewBox="0 0 179.96 177.89"><defs><style>.cls-1{fill:none;stroke:#050505;stroke-miterlimit:10;}.cls-2{fill:#050505;}</style></defs><title>capstoneCookie</title><path class="cls-1" d="M686.47,297.42s-11.07-4.42-31,3L637,309.23s-7.39,0-14.77,8.86c0,0-6.64,3-9.59,8.12,0,0-5.17,8.86-8.12,12.55,0,0-5.9,14.76-6.64,19.92,0,0-4.43,28.79-5.17,36.17,0,0,3,11.81,3.69,16.23l3.69,5.17s0,5.9,5.17,15.5c0,0,7.38,8.86,12.55,14,0,0,14,11.07,22.88,17,0,0,15.49,8.12,23.61,9.59a36.22,36.22,0,0,0,19.19-1.47s25.1-2.22,34.69-5.17c0,0,15.5-.74,29.52-16.24,0,0,15.5-17,21.41-35.42,0,0,3.69-10.34,2.21-15.5,0,0-2.21-3-5.91-.74,0,0-9.59,0-25.09-8.12A149.53,149.53,0,0,1,716.73,386s-11.07-1.48-19.92-22.14c0,0-14.76-17-14.76-26.57,0,0-1.48-7.38,6.64-25.83,0,0,1.47-5.17-.74-13.29Z" transform="translate(-592.24 -295.61)"/><path class="cls-1" d="M689.43,317.35s3-1.47,8.11,0c0,0,3.69,2.95,0,4.43,0,0-5.9-.74-7.38,0H688s-.74-1.48.74-1.48C688.69,320.3,688,318.09,689.43,317.35Z" transform="translate(-592.24 -295.61)"/><path class="cls-1" d="M687.21,341s0,2.21,2.95.74l3-2.22s-1.48,0,0-1.47l.73-.74s0-2.95-1.47-2.95A13.17,13.17,0,0,0,688,338Z" transform="translate(-592.24 -295.61)"/><path class="cls-1" d="M702,345.4s.74,2.21,1.48,2.21c0,0,.74,1.48,2.95-.74l.74-.73s1.48-.74,0-2.22l-.74-1.47a1.61,1.61,0,0,0-2.21-.74s-2.22.74-2.22,1.47C702,343.18,701.23,344.66,702,345.4Z" transform="translate(-592.24 -295.61)"/><path class="cls-1" d="M714.52,357.21s-.74,2.21,0,3a3.2,3.2,0,0,0,3,1.47,1.61,1.61,0,0,0,.74-2.21L716,357.21Z" transform="translate(-592.24 -295.61)"/><path class="cls-1" d="M725.59,363.85l2.95,2.95s3,1.48,3-.74a7.45,7.45,0,0,1,2.22-.74s1.47-1.47-.74-1.47c0,0-3-2.22-5.9-1.48A1.45,1.45,0,0,0,725.59,363.85Z" transform="translate(-592.24 -295.61)"/><path class="cls-1" d="M740.69,374.14l3.95-1.35s2.63-2,.64-3a7.63,7.63,0,0,1,.31-2.32s-.67-2-1.65,0c0,0-3.29,1.67-3.92,4.65A1.43,1.43,0,0,0,740.69,374.14Z" transform="translate(-592.24 -295.61)"/><path class="cls-1" d="M740,361.27s2.22,0,1.48-3c0,0-.74-2.95-3-2.21l-1.48.74s-1.48.74-.74,3a2.61,2.61,0,0,0,1.48,2.21S739.24,363.48,740,361.27Z" transform="translate(-592.24 -295.61)"/><path class="cls-2" d="M636.29,346.14a26,26,0,0,1,6.64-9.6s2.21-3,5.17,0c0,0,5.16,2.22,4.42,6.64,0,0,0,4.43-3.69,6.65,0,0-6.64-2.22-9.59,0C639.24,349.83,636.29,350.56,636.29,346.14Z" transform="translate(-592.24 -295.61)"/><path class="cls-2" d="M640.72,374.92s9.59,2.21,3.69,13.28c0,0-9.6,5.17-17.72-8.11,0,0-.74-5.17,3.69-7.38C630.38,372.71,636.29,374.92,640.72,374.92Z" transform="translate(-592.24 -295.61)"/><path class="cls-2" d="M685.37,410s7.38-5.91,12.54,2.95c0,0,1.48,2.21,0,11.07,0,0-.73,3.69-12.54-1.48,0,0-5.17,0-3-8.12Z" transform="translate(-592.24 -295.61)"/><path class="cls-2" d="M724.48,416.62s9.6,1.48,9.6,10.33v5.91s-2.22-.74-9.6,0c0,0-3.69-.74-4.42-8.12C720.06,424.74,719.32,417.36,724.48,416.62Z" transform="translate(-592.24 -295.61)"/><path class="cls-2" d="M621.9,410s7.38-5.91,12.54,2.95c0,0,1.48,2.21,0,11.07,0,0-.74,3.69-12.54-1.48,0,0-5.17,0-3-8.12Z" transform="translate(-592.24 -295.61)"/><path class="cls-2" d="M665.81,389.68a26,26,0,0,1,6.64-9.59s2.22-3,5.17,0c0,0,5.16,2.21,4.43,6.64,0,0,0,4.43-3.69,6.64,0,0-6.65-2.21-9.6,0C668.76,393.37,665.81,394.11,665.81,389.68Z" transform="translate(-592.24 -295.61)"/></svg>